<svg xmlns="http://www.w3.org/2000/svg" xmlns:xlink="http://www.w3.org/1999/xlink" width="500" zoomAndPan="magnify" viewBox="0 0 375 374.999991" height="500" preserveAspectRatio="xMidYMid meet" version="1.0"><defs><g/><clipPath id="a498c102b3"><path d="M 121.71875 152.824219 L 125 152.824219 L 125 235.324219 L 121.71875 235.324219 Z M 121.71875 152.824219 " clip-rule="nonzero"/></clipPath><clipPath id="2d34e8fefa"><path d="M 123 152.824219 L 196.71875 152.824219 L 196.71875 156 L 123 156 Z M 123 152.824219 " clip-rule="nonzero"/></clipPath><clipPath id="c862961856"><path d="M 250 139.714844 L 253.351562 139.714844 L 253.351562 222.214844 L 250 222.214844 Z M 250 139.714844 " clip-rule="nonzero"/></clipPath><clipPath id="2099a87163"><path d="M 178.433594 219 L 253 219 L 253 222.214844 L 178.433594 222.214844 Z M 178.433594 219 " clip-rule="nonzero"/></clipPath></defs><g clip-path="url(#a498c102b3)"><path fill="#ffffff" d="M 124.402344 152.824219 L 123.066406 235.503906 L 121.734375 152.824219 Z M 124.402344 152.824219 " fill-opacity="1" fill-rule="nonzero"/></g><g clip-path="url(#2d34e8fefa)"><path fill="#ffffff" d="M 123.082031 152.828125 L 196.625 154.160156 L 123.082031 155.492188 Z M 123.082031 152.828125 " fill-opacity="1" fill-rule="nonzero"/></g><path fill="#ffffff" d="M 128.894531 157.066406 L 127.5625 226.253906 L 126.226562 157.066406 Z M 128.894531 157.066406 " fill-opacity="1" fill-rule="nonzero"/><path fill="#ffffff" d="M 126.984375 157.050781 L 188.527344 158.382812 L 126.984375 159.714844 Z M 126.984375 157.050781 " fill-opacity="1" fill-rule="nonzero"/><path fill="#ffffff" d="M 133.429688 161.089844 L 132.097656 205.921875 L 130.765625 161.089844 Z M 133.429688 161.089844 " fill-opacity="1" fill-rule="nonzero"/><path fill="#ffffff" d="M 132.097656 161.070312 L 171.972656 162.402344 L 132.097656 163.738281 Z M 132.097656 161.070312 " fill-opacity="1" fill-rule="nonzero"/><g clip-path="url(#c862961856)"><path fill="#ffffff" d="M 250.742188 222.214844 L 252.078125 139.363281 L 253.414062 222.214844 Z M 250.742188 222.214844 " fill-opacity="1" fill-rule="nonzero"/></g><g clip-path="url(#2099a87163)"><path fill="#ffffff" d="M 252.066406 222.214844 L 178.367188 220.878906 L 252.066406 219.542969 Z M 252.066406 222.214844 " fill-opacity="1" fill-rule="nonzero"/></g><path fill="#ffffff" d="M 246.242188 217.964844 L 247.578125 148.632812 L 248.914062 217.964844 Z M 246.242188 217.964844 " fill-opacity="1" fill-rule="nonzero"/><path fill="#ffffff" d="M 248.15625 217.980469 L 186.480469 216.644531 L 248.15625 215.308594 Z M 248.15625 217.980469 " fill-opacity="1" fill-rule="nonzero"/><path fill="#ffffff" d="M 241.695312 213.933594 L 243.03125 169.007812 L 244.367188 213.933594 Z M 241.695312 213.933594 " fill-opacity="1" fill-rule="nonzero"/><path fill="#ffffff" d="M 243.03125 213.953125 L 203.070312 212.617188 L 243.03125 211.28125 Z M 243.03125 213.953125 " fill-opacity="1" fill-rule="nonzero"/><g fill="#ffffff" fill-opacity="1"><g transform="translate(138.625777, 204.02505)"><g><path d="M 3.484375 -33.234375 C 4.179688 -33.273438 5.222656 -33.296875 6.609375 -33.296875 L 9.15625 -33.296875 L 9.15625 -25.640625 C 9.15625 -20.492188 9.175781 -17.921875 9.21875 -17.921875 C 9.300781 -17.921875 9.535156 -18.132812 9.921875 -18.5625 C 9.921875 -18.5625 10.148438 -18.773438 10.609375 -19.203125 C 11.078125 -19.585938 11.425781 -19.894531 11.65625 -20.125 C 11.65625 -20.125 11.78125 -20.238281 12.03125 -20.46875 C 12.28125 -20.707031 12.46875 -20.863281 12.59375 -20.9375 C 12.976562 -21.320312 13.1875 -21.515625 13.21875 -21.515625 C 13.300781 -21.597656 13.4375 -21.710938 13.625 -21.859375 C 14.320312 -22.554688 14.785156 -23.023438 15.015625 -23.265625 C 15.796875 -23.992188 16.28125 -24.4375 16.46875 -24.59375 C 16.695312 -24.78125 17.125 -25.1875 17.75 -25.8125 L 18.265625 -26.390625 C 18.304688 -26.429688 18.328125 -26.453125 18.328125 -26.453125 L 18.84375 -26.90625 C 18.925781 -26.988281 19.429688 -27.472656 20.359375 -28.359375 C 20.515625 -28.515625 20.707031 -28.691406 20.9375 -28.890625 C 21.25 -29.160156 21.554688 -29.445312 21.859375 -29.75 C 22.171875 -30.019531 22.503906 -30.332031 22.859375 -30.6875 C 23.390625 -31.144531 23.832031 -31.53125 24.1875 -31.84375 C 24.414062 -32.070312 24.550781 -32.1875 24.59375 -32.1875 C 24.820312 -32.070312 25.285156 -31.742188 25.984375 -31.203125 C 26.179688 -31.085938 26.28125 -31.007812 26.28125 -30.96875 C 26.28125 -30.96875 26.28125 -30.945312 26.28125 -30.90625 C 26.351562 -30.90625 26.5625 -30.773438 26.90625 -30.515625 C 27.71875 -29.890625 28.453125 -29.328125 29.109375 -28.828125 L 29.40625 -28.65625 L 29.234375 -28.484375 C 29.191406 -28.441406 28.921875 -28.207031 28.421875 -27.78125 C 27.992188 -27.351562 27.679688 -27.046875 27.484375 -26.859375 C 27.367188 -26.742188 27.039062 -26.429688 26.5 -25.921875 C 26.039062 -25.492188 25.769531 -25.242188 25.6875 -25.171875 C 25.269531 -24.828125 24.632812 -24.265625 23.78125 -23.484375 C 23.738281 -23.453125 23.582031 -23.316406 23.3125 -23.078125 C 23.125 -22.890625 22.816406 -22.601562 22.390625 -22.21875 C 22.035156 -21.832031 21.785156 -21.597656 21.640625 -21.515625 C 21.097656 -21.085938 20.226562 -20.296875 19.03125 -19.140625 C 17.320312 -17.441406 16.410156 -16.570312 16.296875 -16.53125 L 16.296875 -16.296875 C 16.296875 -16.296875 16.46875 -16.148438 16.8125 -15.859375 C 17.164062 -15.566406 17.363281 -15.40625 17.40625 -15.375 L 17.40625 -15.3125 C 17.4375 -15.3125 17.453125 -15.332031 17.453125 -15.375 C 17.492188 -15.375 17.582031 -15.304688 17.71875 -15.171875 C 17.851562 -15.035156 17.929688 -14.96875 17.953125 -14.96875 C 17.972656 -14.96875 18.039062 -14.910156 18.15625 -14.796875 C 18.226562 -14.671875 18.367188 -14.53125 18.578125 -14.375 C 18.796875 -14.226562 18.984375 -14.097656 19.140625 -13.984375 C 19.253906 -13.828125 19.320312 -13.75 19.34375 -13.75 C 19.363281 -13.75 19.375 -13.726562 19.375 -13.6875 L 19.4375 -13.6875 C 19.46875 -13.6875 19.660156 -13.550781 20.015625 -13.28125 C 21.242188 -12.195312 21.921875 -11.617188 22.046875 -11.546875 C 22.347656 -11.304688 22.847656 -10.878906 23.546875 -10.265625 C 23.972656 -9.878906 24.222656 -9.6875 24.296875 -9.6875 C 24.410156 -9.644531 24.703125 -9.429688 25.171875 -9.046875 C 25.554688 -8.703125 26.125 -8.21875 26.875 -7.59375 C 27.632812 -6.976562 28.015625 -6.648438 28.015625 -6.609375 C 28.015625 -6.566406 28.03125 -6.546875 28.0625 -6.546875 C 28.101562 -6.546875 28.171875 -6.5 28.265625 -6.40625 C 28.367188 -6.3125 28.476562 -6.207031 28.59375 -6.09375 C 29.019531 -5.78125 29.484375 -5.375 29.984375 -4.875 C 30.097656 -4.757812 30.234375 -4.644531 30.390625 -4.53125 C 30.472656 -4.445312 30.628906 -4.3125 30.859375 -4.125 C 31.015625 -3.925781 31.1875 -3.769531 31.375 -3.65625 L 31.609375 -3.421875 L 31.5 -3.3125 C 31.414062 -3.226562 31.351562 -3.1875 31.3125 -3.1875 C 31.28125 -3.1875 31.265625 -3.164062 31.265625 -3.125 C 31.265625 -3.125 31.144531 -3.03125 30.90625 -2.84375 C 30.375 -2.414062 29.894531 -2.046875 29.46875 -1.734375 C 28.539062 -0.960938 28.015625 -0.554688 27.890625 -0.515625 C 27.773438 -0.367188 27.648438 -0.242188 27.515625 -0.140625 C 27.378906 -0.046875 27.296875 0.0195312 27.265625 0.0625 L 27.09375 0.171875 L 26.6875 -0.171875 C 26.332031 -0.441406 26 -0.703125 25.6875 -0.953125 C 25.382812 -1.203125 24.960938 -1.539062 24.421875 -1.96875 C 24.265625 -2.082031 24.144531 -2.179688 24.0625 -2.265625 C 23.71875 -2.566406 23.523438 -2.71875 23.484375 -2.71875 C 23.484375 -2.71875 23.484375 -2.738281 23.484375 -2.78125 C 23.484375 -2.820312 23.410156 -2.878906 23.265625 -2.953125 C 23.179688 -3.066406 23.101562 -3.125 23.03125 -3.125 C 22.789062 -3.363281 22.476562 -3.617188 22.09375 -3.890625 C 21.320312 -4.503906 20.6875 -5.046875 20.1875 -5.515625 C 19.5625 -6.015625 19.039062 -6.421875 18.625 -6.734375 C 18.5 -6.847656 18.164062 -7.117188 17.625 -7.546875 C 17.28125 -7.847656 16.914062 -8.15625 16.53125 -8.46875 C 16.101562 -8.851562 15.695312 -9.203125 15.3125 -9.515625 C 14.925781 -9.859375 14.675781 -10.070312 14.5625 -10.15625 C 14.40625 -10.300781 14.285156 -10.394531 14.203125 -10.4375 C 14.054688 -10.59375 13.863281 -10.75 13.625 -10.90625 C 13.625 -10.90625 13.625 -10.925781 13.625 -10.96875 C 13.625 -10.96875 13.609375 -10.96875 13.578125 -10.96875 L 13.578125 -11.015625 L 13.453125 -11.015625 C 13.453125 -11.054688 13.429688 -11.078125 13.390625 -11.078125 C 13.359375 -11.117188 13.34375 -11.140625 13.34375 -11.140625 L 13.34375 -11.1875 L 13.21875 -11.3125 C 13.1875 -11.3125 13.171875 -11.332031 13.171875 -11.375 L 13.046875 -11.375 L 13.046875 -11.421875 L 12.984375 -11.421875 L 12.984375 -11.484375 C 12.867188 -11.597656 12.695312 -11.734375 12.46875 -11.890625 C 12.15625 -12.160156 11.710938 -12.523438 11.140625 -12.984375 C 11.023438 -13.140625 10.65625 -13.472656 10.03125 -13.984375 L 9.34375 -14.609375 L 9.34375 -14.328125 C 9.300781 -14.097656 9.28125 -13.457031 9.28125 -12.40625 C 9.238281 -4.019531 9.195312 0.191406 9.15625 0.234375 C 9.15625 0.304688 8.132812 0.34375 6.09375 0.34375 L 2.953125 0.34375 L 2.953125 -33.234375 Z M 3.484375 -33.234375 "/></g></g></g><g fill="#ffffff" fill-opacity="1"><g transform="translate(178.005481, 204.02505)"><g><path d="M 3.015625 -33.171875 L 3.015625 -33.296875 L 9.34375 -33.296875 L 9.34375 0.34375 L 7.421875 0.34375 C 5.722656 0.3125 4.660156 0.296875 4.234375 0.296875 L 2.953125 0.234375 L 2.953125 -16.40625 C 2.992188 -25.539062 3.015625 -31.128906 3.015625 -33.171875 Z M 3.015625 -33.171875 "/></g></g></g><g fill="#ffffff" fill-opacity="1"><g transform="translate(196.100606, 204.02505)"><g><path d="M 5.046875 -33.234375 C 6.203125 -33.273438 7.148438 -33.296875 7.890625 -33.296875 C 8.617188 -33.296875 9.117188 -33.273438 9.390625 -33.234375 L 9.390625 -28.65625 C 9.429688 -28.65625 9.859375 -29.46875 10.671875 -31.09375 L 11.71875 -33.234375 L 24.125 -33.234375 L 33.0625 -33.296875 L 33.0625 -28.125 C 33.0625 -24.726562 33.082031 -22.875 33.125 -22.5625 C 33.15625 -22.21875 33.171875 -20.363281 33.171875 -17 L 33.234375 -11.828125 L 32.765625 -11.890625 C 32.378906 -11.929688 28.394531 -11.953125 20.8125 -11.953125 C 13.238281 -11.953125 9.429688 -11.929688 9.390625 -11.890625 C 9.390625 -11.847656 9.390625 -9.828125 9.390625 -5.828125 C 9.390625 -1.828125 9.375 0.171875 9.34375 0.171875 L 5.734375 0.171875 C 3.921875 0.171875 3.003906 0.160156 2.984375 0.140625 C 2.960938 0.117188 2.953125 -5.457031 2.953125 -16.59375 L 2.953125 -33.234375 Z M 9.390625 -17.34375 L 17.515625 -17.34375 C 23.359375 -17.34375 26.335938 -17.378906 26.453125 -17.453125 L 26.453125 -27.671875 L 17.921875 -27.71875 C 12.234375 -27.71875 9.390625 -27.679688 9.390625 -27.609375 Z M 9.390625 -17.34375 "/></g></g></g></svg>