<svg xmlns="http://www.w3.org/2000/svg" xmlns:xlink="http://www.w3.org/1999/xlink" width="500" zoomAndPan="magnify" viewBox="0 0 375 374.999991" height="500" preserveAspectRatio="xMidYMid meet" version="1.0"><defs><g/><clipPath id="87705cfd97"><path d="M 34.355469 150.695312 L 38 150.695312 L 38 244.0625 L 34.355469 244.0625 Z M 34.355469 150.695312 " clip-rule="nonzero"/></clipPath><clipPath id="59297ed50c"><path d="M 35 150.695312 L 119.425781 150.695312 L 119.425781 154 L 35 154 Z M 35 150.695312 " clip-rule="nonzero"/></clipPath><clipPath id="c9fe3c081c"><path d="M 337 131.386719 L 339.90625 131.386719 L 339.90625 224.714844 L 337 224.714844 Z M 337 131.386719 " clip-rule="nonzero"/></clipPath><clipPath id="4e6743d24a"><path d="M 255.808594 221 L 339 221 L 339 224.714844 L 255.808594 224.714844 Z M 255.808594 221 " clip-rule="nonzero"/></clipPath></defs><g clip-path="url(#87705cfd97)"><path fill="#ffffff" d="M 37.390625 150.695312 L 35.882812 244.324219 L 34.371094 150.695312 Z M 37.390625 150.695312 " fill-opacity="1" fill-rule="nonzero"/></g><g clip-path="url(#59297ed50c)"><path fill="#ffffff" d="M 35.898438 150.695312 L 119.183594 152.207031 L 35.898438 153.714844 Z M 35.898438 150.695312 " fill-opacity="1" fill-rule="nonzero"/></g><path fill="#ffffff" d="M 42.480469 155.496094 L 40.972656 233.851562 L 39.460938 155.496094 Z M 42.480469 155.496094 " fill-opacity="1" fill-rule="nonzero"/><path fill="#ffffff" d="M 40.316406 155.480469 L 110.015625 156.988281 L 40.316406 158.5 Z M 40.316406 155.480469 " fill-opacity="1" fill-rule="nonzero"/><path fill="#ffffff" d="M 47.617188 160.054688 L 46.109375 210.824219 L 44.597656 160.054688 Z M 47.617188 160.054688 " fill-opacity="1" fill-rule="nonzero"/><path fill="#ffffff" d="M 46.109375 160.03125 L 91.269531 161.542969 L 46.109375 163.050781 Z M 46.109375 160.03125 " fill-opacity="1" fill-rule="nonzero"/><g clip-path="url(#c9fe3c081c)"><path fill="#ffffff" d="M 337.152344 224.757812 L 338.660156 131.34375 L 340.167969 224.757812 Z M 337.152344 224.757812 " fill-opacity="1" fill-rule="nonzero"/></g><g clip-path="url(#4e6743d24a)"><path fill="#ffffff" d="M 338.644531 224.753906 L 255.550781 223.25 L 338.644531 221.742188 Z M 338.644531 224.753906 " fill-opacity="1" fill-rule="nonzero"/></g><path fill="#ffffff" d="M 332.078125 219.964844 L 333.582031 141.792969 L 335.089844 219.964844 Z M 332.078125 219.964844 " fill-opacity="1" fill-rule="nonzero"/><path fill="#ffffff" d="M 334.234375 219.984375 L 264.699219 218.476562 L 334.234375 216.96875 Z M 334.234375 219.984375 " fill-opacity="1" fill-rule="nonzero"/><path fill="#ffffff" d="M 326.953125 215.417969 L 328.457031 164.765625 L 329.964844 215.417969 Z M 326.953125 215.417969 " fill-opacity="1" fill-rule="nonzero"/><path fill="#ffffff" d="M 328.457031 215.441406 L 283.402344 213.933594 L 328.457031 212.429688 Z M 328.457031 215.441406 " fill-opacity="1" fill-rule="nonzero"/><g fill="#ffffff" fill-opacity="1"><g transform="translate(58.96433, 199.6271)"><g><path d="M 2.578125 -24.609375 C 3.085938 -24.628906 3.859375 -24.640625 4.890625 -24.640625 L 6.78125 -24.640625 L 6.78125 -18.984375 C 6.78125 -15.171875 6.796875 -13.265625 6.828125 -13.265625 C 6.878906 -13.265625 7.050781 -13.421875 7.34375 -13.734375 C 7.34375 -13.734375 7.515625 -13.894531 7.859375 -14.21875 C 8.203125 -14.5 8.457031 -14.726562 8.625 -14.90625 C 8.625 -14.90625 8.71875 -14.988281 8.90625 -15.15625 C 9.09375 -15.332031 9.226562 -15.445312 9.3125 -15.5 C 9.601562 -15.789062 9.765625 -15.9375 9.796875 -15.9375 C 9.847656 -15.988281 9.945312 -16.070312 10.09375 -16.1875 C 10.601562 -16.695312 10.945312 -17.039062 11.125 -17.21875 C 11.695312 -17.757812 12.050781 -18.085938 12.1875 -18.203125 C 12.363281 -18.347656 12.679688 -18.648438 13.140625 -19.109375 L 13.53125 -19.53125 C 13.550781 -19.5625 13.5625 -19.578125 13.5625 -19.578125 L 13.953125 -19.921875 C 14.015625 -19.984375 14.390625 -20.34375 15.078125 -21 C 15.191406 -21.113281 15.332031 -21.242188 15.5 -21.390625 C 15.726562 -21.585938 15.957031 -21.800781 16.1875 -22.03125 C 16.414062 -22.226562 16.660156 -22.457031 16.921875 -22.71875 C 17.316406 -23.0625 17.644531 -23.347656 17.90625 -23.578125 C 18.070312 -23.742188 18.171875 -23.828125 18.203125 -23.828125 C 18.378906 -23.742188 18.722656 -23.5 19.234375 -23.09375 C 19.378906 -23.007812 19.453125 -22.953125 19.453125 -22.921875 C 19.453125 -22.921875 19.453125 -22.910156 19.453125 -22.890625 C 19.503906 -22.890625 19.660156 -22.785156 19.921875 -22.578125 C 20.523438 -22.117188 21.066406 -21.707031 21.546875 -21.34375 L 21.765625 -21.21875 L 21.640625 -21.078125 C 21.609375 -21.054688 21.410156 -20.882812 21.046875 -20.5625 C 20.722656 -20.25 20.492188 -20.019531 20.359375 -19.875 C 20.265625 -19.789062 20.019531 -19.5625 19.625 -19.1875 C 19.28125 -18.875 19.078125 -18.691406 19.015625 -18.640625 C 18.703125 -18.378906 18.234375 -17.960938 17.609375 -17.390625 C 17.578125 -17.359375 17.460938 -17.257812 17.265625 -17.09375 C 17.117188 -16.945312 16.890625 -16.726562 16.578125 -16.4375 C 16.316406 -16.15625 16.128906 -15.988281 16.015625 -15.9375 C 15.617188 -15.613281 14.972656 -15.023438 14.078125 -14.171875 C 12.816406 -12.910156 12.144531 -12.265625 12.0625 -12.234375 L 12.0625 -12.0625 C 12.0625 -12.0625 12.191406 -11.953125 12.453125 -11.734375 C 12.710938 -11.523438 12.851562 -11.40625 12.875 -11.375 L 12.875 -11.328125 C 12.90625 -11.328125 12.921875 -11.34375 12.921875 -11.375 C 12.953125 -11.375 13.015625 -11.320312 13.109375 -11.21875 C 13.210938 -11.125 13.269531 -11.078125 13.28125 -11.078125 C 13.300781 -11.078125 13.351562 -11.035156 13.4375 -10.953125 C 13.5 -10.859375 13.609375 -10.753906 13.765625 -10.640625 C 13.921875 -10.535156 14.054688 -10.4375 14.171875 -10.34375 C 14.253906 -10.226562 14.300781 -10.171875 14.3125 -10.171875 C 14.332031 -10.171875 14.34375 -10.160156 14.34375 -10.140625 L 14.390625 -10.140625 C 14.410156 -10.140625 14.550781 -10.035156 14.8125 -9.828125 C 15.726562 -9.023438 16.226562 -8.597656 16.3125 -8.546875 C 16.539062 -8.367188 16.914062 -8.050781 17.4375 -7.59375 C 17.75 -7.3125 17.929688 -7.171875 17.984375 -7.171875 C 18.078125 -7.140625 18.296875 -6.984375 18.640625 -6.703125 C 18.921875 -6.441406 19.335938 -6.082031 19.890625 -5.625 C 20.453125 -5.164062 20.734375 -4.921875 20.734375 -4.890625 C 20.734375 -4.867188 20.75 -4.859375 20.78125 -4.859375 C 20.8125 -4.859375 20.863281 -4.820312 20.9375 -4.75 C 21.007812 -4.675781 21.085938 -4.597656 21.171875 -4.515625 C 21.484375 -4.285156 21.828125 -3.984375 22.203125 -3.609375 C 22.285156 -3.523438 22.382812 -3.4375 22.5 -3.34375 C 22.550781 -3.289062 22.664062 -3.191406 22.84375 -3.046875 C 22.957031 -2.898438 23.085938 -2.785156 23.234375 -2.703125 L 23.40625 -2.53125 L 23.3125 -2.453125 C 23.257812 -2.390625 23.21875 -2.359375 23.1875 -2.359375 C 23.15625 -2.359375 23.140625 -2.34375 23.140625 -2.3125 C 23.140625 -2.3125 23.054688 -2.242188 22.890625 -2.109375 C 22.484375 -1.785156 22.125 -1.507812 21.8125 -1.28125 C 21.125 -0.707031 20.738281 -0.410156 20.65625 -0.390625 C 20.570312 -0.273438 20.476562 -0.179688 20.375 -0.109375 C 20.269531 -0.0351562 20.207031 0.015625 20.1875 0.046875 L 20.046875 0.125 L 19.75 -0.125 C 19.488281 -0.320312 19.242188 -0.515625 19.015625 -0.703125 C 18.785156 -0.890625 18.472656 -1.140625 18.078125 -1.453125 C 17.960938 -1.546875 17.875 -1.617188 17.8125 -1.671875 C 17.5625 -1.898438 17.421875 -2.015625 17.390625 -2.015625 C 17.390625 -2.015625 17.390625 -2.03125 17.390625 -2.0625 C 17.390625 -2.09375 17.332031 -2.132812 17.21875 -2.1875 C 17.15625 -2.269531 17.097656 -2.3125 17.046875 -2.3125 C 16.867188 -2.488281 16.640625 -2.675781 16.359375 -2.875 C 15.785156 -3.332031 15.3125 -3.734375 14.9375 -4.078125 C 14.476562 -4.453125 14.09375 -4.753906 13.78125 -4.984375 C 13.695312 -5.066406 13.453125 -5.265625 13.046875 -5.578125 C 12.796875 -5.804688 12.523438 -6.035156 12.234375 -6.265625 C 11.921875 -6.554688 11.617188 -6.816406 11.328125 -7.046875 C 11.046875 -7.296875 10.863281 -7.453125 10.78125 -7.515625 C 10.664062 -7.628906 10.578125 -7.703125 10.515625 -7.734375 C 10.398438 -7.847656 10.257812 -7.960938 10.09375 -8.078125 C 10.09375 -8.078125 10.09375 -8.085938 10.09375 -8.109375 C 10.09375 -8.109375 10.078125 -8.109375 10.046875 -8.109375 L 10.046875 -8.15625 L 9.96875 -8.15625 C 9.96875 -8.1875 9.953125 -8.203125 9.921875 -8.203125 C 9.890625 -8.234375 9.875 -8.25 9.875 -8.25 L 9.875 -8.28125 L 9.796875 -8.375 C 9.765625 -8.375 9.75 -8.390625 9.75 -8.421875 L 9.65625 -8.421875 L 9.65625 -8.453125 L 9.625 -8.453125 L 9.625 -8.5 C 9.53125 -8.582031 9.398438 -8.679688 9.234375 -8.796875 C 9.003906 -9.003906 8.675781 -9.28125 8.25 -9.625 C 8.15625 -9.738281 7.878906 -9.976562 7.421875 -10.34375 L 6.90625 -10.8125 L 6.90625 -10.609375 C 6.882812 -10.429688 6.875 -9.957031 6.875 -9.1875 C 6.84375 -2.976562 6.8125 0.140625 6.78125 0.171875 C 6.78125 0.222656 6.023438 0.25 4.515625 0.25 L 2.1875 0.25 L 2.1875 -24.609375 Z M 2.578125 -24.609375 "/></g></g></g><g fill="#ffffff" fill-opacity="1"><g transform="translate(91.849201, 199.6271)"><g><path d="M 2.234375 -24.5625 L 2.234375 -24.640625 L 6.90625 -24.640625 L 6.90625 0.25 L 5.5 0.25 C 4.238281 0.226562 3.453125 0.21875 3.140625 0.21875 L 2.1875 0.171875 L 2.1875 -12.15625 C 2.21875 -18.90625 2.234375 -23.039062 2.234375 -24.5625 Z M 2.234375 -24.5625 "/></g></g></g><g fill="#ffffff" fill-opacity="1"><g transform="translate(108.978939, 199.6271)"><g><path d="M 3.734375 -24.609375 C 4.597656 -24.628906 5.300781 -24.640625 5.84375 -24.640625 C 6.382812 -24.640625 6.753906 -24.628906 6.953125 -24.609375 L 6.953125 -21.21875 C 6.984375 -21.21875 7.300781 -21.816406 7.90625 -23.015625 L 8.671875 -24.609375 L 17.859375 -24.609375 L 24.46875 -24.640625 L 24.46875 -20.828125 C 24.46875 -18.304688 24.484375 -16.929688 24.515625 -16.703125 C 24.546875 -16.441406 24.5625 -15.066406 24.5625 -12.578125 L 24.609375 -8.765625 L 24.265625 -8.796875 C 23.972656 -8.828125 21.019531 -8.84375 15.40625 -8.84375 C 9.800781 -8.84375 6.984375 -8.828125 6.953125 -8.796875 C 6.953125 -8.773438 6.953125 -7.28125 6.953125 -4.3125 C 6.953125 -1.351562 6.9375 0.125 6.90625 0.125 L 4.25 0.125 C 2.90625 0.125 2.222656 0.113281 2.203125 0.09375 C 2.191406 0.0820312 2.1875 -4.039062 2.1875 -12.28125 L 2.1875 -24.609375 Z M 6.953125 -12.84375 L 12.96875 -12.84375 C 17.289062 -12.84375 19.492188 -12.867188 19.578125 -12.921875 L 19.578125 -20.484375 L 13.265625 -20.53125 C 9.054688 -20.53125 6.953125 -20.5 6.953125 -20.4375 Z M 6.953125 -12.84375 "/></g></g></g><g fill="#ffffff" fill-opacity="1"><g transform="translate(143.065836, 199.6271)"><g><path d="M 4.03125 -24.609375 C 4.238281 -24.722656 4.363281 -24.78125 4.40625 -24.78125 C 4.445312 -24.78125 4.566406 -24.648438 4.765625 -24.390625 C 4.992188 -24.128906 5.148438 -23.957031 5.234375 -23.875 C 5.265625 -23.84375 5.28125 -23.8125 5.28125 -23.78125 L 5.375 -23.75 C 5.507812 -23.570312 5.765625 -23.269531 6.140625 -22.84375 C 6.222656 -22.757812 6.351562 -22.613281 6.53125 -22.40625 C 6.695312 -22.207031 6.835938 -22.035156 6.953125 -21.890625 C 7.128906 -21.691406 7.285156 -21.523438 7.421875 -21.390625 C 7.597656 -21.179688 7.6875 -21.070312 7.6875 -21.0625 C 7.6875 -21.050781 7.6875 -21.03125 7.6875 -21 C 7.832031 -20.882812 8.046875 -20.65625 8.328125 -20.3125 C 8.503906 -20.132812 8.601562 -20.035156 8.625 -20.015625 C 8.625 -19.984375 8.625 -19.953125 8.625 -19.921875 C 8.625 -19.890625 8.679688 -19.847656 8.796875 -19.796875 C 8.910156 -19.648438 9.015625 -19.535156 9.109375 -19.453125 L 9.453125 -19.109375 L 9.625 -18.84375 C 9.738281 -18.726562 9.796875 -18.664062 9.796875 -18.65625 C 9.796875 -18.644531 9.800781 -18.628906 9.8125 -18.609375 C 9.820312 -18.597656 9.84375 -18.59375 9.875 -18.59375 C 9.875 -18.53125 9.988281 -18.382812 10.21875 -18.15625 C 10.332031 -18.019531 10.445312 -17.90625 10.5625 -17.8125 C 10.625 -17.695312 10.679688 -17.613281 10.734375 -17.5625 C 11.109375 -17.1875 11.378906 -16.867188 11.546875 -16.609375 C 11.578125 -16.554688 11.632812 -16.5 11.71875 -16.4375 C 12.144531 -15.957031 12.359375 -15.703125 12.359375 -15.671875 C 12.359375 -15.671875 12.410156 -15.628906 12.515625 -15.546875 C 12.617188 -15.460938 12.671875 -15.40625 12.671875 -15.375 C 12.671875 -15.34375 12.710938 -15.285156 12.796875 -15.203125 C 12.910156 -15.117188 13.023438 -15.003906 13.140625 -14.859375 C 13.367188 -14.597656 13.5 -14.441406 13.53125 -14.390625 C 13.695312 -14.210938 13.835938 -14.050781 13.953125 -13.90625 L 14.078125 -13.734375 L 14.125 -13.734375 C 14.1875 -13.679688 14.242188 -13.617188 14.296875 -13.546875 C 14.359375 -13.472656 14.410156 -13.40625 14.453125 -13.34375 C 14.492188 -13.289062 14.53125 -13.25 14.5625 -13.21875 C 14.644531 -13.132812 14.703125 -13.09375 14.734375 -13.09375 C 14.734375 -13.09375 14.875 -13.238281 15.15625 -13.53125 C 15.1875 -13.550781 15.25 -13.625 15.34375 -13.75 C 15.445312 -13.882812 15.53125 -13.96875 15.59375 -14 C 15.757812 -14.195312 15.941406 -14.425781 16.140625 -14.6875 C 16.398438 -14.96875 16.585938 -15.164062 16.703125 -15.28125 C 16.960938 -15.570312 17.191406 -15.816406 17.390625 -16.015625 C 17.648438 -16.328125 17.804688 -16.523438 17.859375 -16.609375 C 17.921875 -16.671875 18.410156 -17.21875 19.328125 -18.25 C 19.347656 -18.25 19.375 -18.269531 19.40625 -18.3125 C 19.4375 -18.351562 19.453125 -18.390625 19.453125 -18.421875 C 19.910156 -18.910156 20.796875 -19.925781 22.109375 -21.46875 C 22.992188 -22.5 23.710938 -23.328125 24.265625 -23.953125 C 24.609375 -24.359375 24.804688 -24.601562 24.859375 -24.6875 L 24.953125 -24.734375 L 26.28125 -23.953125 C 27.195312 -23.410156 27.679688 -23.113281 27.734375 -23.0625 C 27.847656 -23.03125 27.976562 -22.957031 28.125 -22.84375 C 28.15625 -22.8125 28.269531 -22.738281 28.46875 -22.625 C 28.550781 -22.570312 28.59375 -22.53125 28.59375 -22.5 C 28.59375 -22.46875 28.519531 -22.378906 28.375 -22.234375 C 28.144531 -21.953125 27.734375 -21.453125 27.140625 -20.734375 C 26.679688 -20.222656 26.4375 -19.9375 26.40625 -19.875 C 26.257812 -19.738281 26.101562 -19.566406 25.9375 -19.359375 L 25.671875 -19.109375 C 25.585938 -18.992188 25.488281 -18.863281 25.375 -18.71875 C 25.257812 -18.570312 25.1875 -18.488281 25.15625 -18.46875 C 25.101562 -18.40625 25.003906 -18.289062 24.859375 -18.125 L 24.125 -17.296875 C 24.101562 -17.273438 23.804688 -16.929688 23.234375 -16.265625 C 21.773438 -14.609375 20.914062 -13.640625 20.65625 -13.359375 C 20.59375 -13.296875 20.472656 -13.164062 20.296875 -12.96875 C 20.128906 -12.769531 19.988281 -12.613281 19.875 -12.5 C 19.707031 -12.289062 19.582031 -12.128906 19.5 -12.015625 C 19.125 -11.585938 18.9375 -11.375 18.9375 -11.375 C 18.875 -11.34375 18.804688 -11.285156 18.734375 -11.203125 C 18.671875 -11.117188 18.640625 -11.0625 18.640625 -11.03125 L 18.375 -10.78125 C 18.257812 -10.664062 18.175781 -10.566406 18.125 -10.484375 C 17.832031 -10.140625 17.570312 -9.835938 17.34375 -9.578125 L 17.171875 -9.40625 C 17.085938 -9.320312 17.046875 -9.265625 17.046875 -9.234375 L 16.921875 -9.140625 L 16.921875 0.421875 L 12.28125 0.421875 L 12.28125 -4.34375 C 12.28125 -7.519531 12.296875 -9.117188 12.328125 -9.140625 L 12.359375 -9.140625 C 12.359375 -9.140625 12.335938 -9.175781 12.296875 -9.25 C 12.253906 -9.320312 12.203125 -9.394531 12.140625 -9.46875 C 12.085938 -9.539062 11.976562 -9.648438 11.8125 -9.796875 C 11.40625 -10.253906 11.160156 -10.550781 11.078125 -10.6875 C 11.015625 -10.769531 10.925781 -10.859375 10.8125 -10.953125 C 10.726562 -11.035156 10.53125 -11.265625 10.21875 -11.640625 C 10.132812 -11.753906 10.054688 -11.851562 9.984375 -11.9375 C 9.910156 -12.019531 9.847656 -12.101562 9.796875 -12.1875 L 9.75 -12.1875 L 9.65625 -12.28125 L 9.625 -12.28125 C 9.53125 -12.425781 9.285156 -12.710938 8.890625 -13.140625 C 8.460938 -13.648438 8.191406 -13.960938 8.078125 -14.078125 C 7.960938 -14.191406 7.859375 -14.304688 7.765625 -14.421875 C 7.710938 -14.453125 7.585938 -14.613281 7.390625 -14.90625 C 7.328125 -14.957031 7.21875 -15.0625 7.0625 -15.21875 C 6.90625 -15.375 6.796875 -15.5 6.734375 -15.59375 C 6.617188 -15.707031 6.460938 -15.890625 6.265625 -16.140625 C 6.210938 -16.203125 6.054688 -16.375 5.796875 -16.65625 C 5.421875 -17.113281 4.734375 -17.914062 3.734375 -19.0625 C 3.503906 -19.289062 3.304688 -19.519531 3.140625 -19.75 C 3.078125 -19.8125 2.972656 -19.921875 2.828125 -20.078125 C 2.691406 -20.234375 2.609375 -20.328125 2.578125 -20.359375 C 2.578125 -20.378906 2.507812 -20.460938 2.375 -20.609375 C 2.25 -20.753906 2.160156 -20.851562 2.109375 -20.90625 C 1.929688 -21.113281 1.785156 -21.273438 1.671875 -21.390625 C 1.671875 -21.410156 1.5 -21.625 1.15625 -22.03125 C 0.875 -22.3125 0.734375 -22.46875 0.734375 -22.5 C 0.734375 -22.5 0.738281 -22.503906 0.75 -22.515625 C 0.757812 -22.535156 0.878906 -22.613281 1.109375 -22.75 C 1.679688 -23.09375 2.328125 -23.492188 3.046875 -23.953125 C 3.046875 -23.953125 3.078125 -23.96875 3.140625 -24 C 3.140625 -24 3.140625 -24.015625 3.140625 -24.046875 C 3.140625 -24.046875 3.148438 -24.046875 3.171875 -24.046875 C 3.203125 -24.046875 3.21875 -24.0625 3.21875 -24.09375 C 3.21875 -24.09375 3.234375 -24.09375 3.265625 -24.09375 C 3.296875 -24.113281 3.320312 -24.128906 3.34375 -24.140625 C 3.375 -24.160156 3.410156 -24.175781 3.453125 -24.1875 C 3.492188 -24.207031 3.515625 -24.234375 3.515625 -24.265625 C 3.578125 -24.285156 3.675781 -24.335938 3.8125 -24.421875 C 3.957031 -24.515625 4.03125 -24.578125 4.03125 -24.609375 Z M 4.03125 -24.609375 "/></g></g></g><g fill="#ffffff" fill-opacity="1"><g transform="translate(180.415381, 199.6271)"><g><path d="M 2.1875 -12.15625 C 2.1875 -20.363281 2.203125 -24.46875 2.234375 -24.46875 L 6.734375 -24.46875 L 6.734375 -23.53125 C 6.734375 -22.894531 6.738281 -22.578125 6.75 -22.578125 C 6.769531 -22.578125 6.785156 -22.59375 6.796875 -22.625 C 6.816406 -22.65625 6.957031 -22.8125 7.21875 -23.09375 C 7.445312 -23.320312 7.742188 -23.625 8.109375 -24 L 8.546875 -24.46875 L 24.984375 -24.46875 L 24.984375 -20.828125 L 17.90625 -20.828125 C 13.269531 -20.828125 10.25 -20.8125 8.84375 -20.78125 L 6.875 -20.734375 L 6.875 -16.265625 C 6.875 -13.296875 6.882812 -11.8125 6.90625 -11.8125 C 6.9375 -11.8125 6.953125 -11.820312 6.953125 -11.84375 C 6.984375 -11.90625 7.097656 -12.109375 7.296875 -12.453125 C 7.703125 -13.109375 7.988281 -13.625 8.15625 -14 L 8.421875 -14.34375 L 24.296875 -14.34375 L 24.296875 -12.453125 C 24.296875 -11.191406 24.28125 -10.539062 24.25 -10.5 C 24.226562 -10.457031 21.65625 -10.4375 16.53125 -10.4375 C 11.289062 -10.40625 8.398438 -10.390625 7.859375 -10.390625 L 6.90625 -10.390625 L 6.90625 -6.140625 L 6.953125 -4 L 16.65625 -3.953125 C 22.1875 -3.921875 24.953125 -3.90625 24.953125 -3.90625 C 24.953125 -3.90625 24.960938 -3.71875 24.984375 -3.34375 L 25.15625 0 C 25.132812 0.03125 24.421875 0.046875 23.015625 0.046875 C 21.554688 0.046875 17.734375 0.0546875 11.546875 0.078125 L 2.1875 0.125 Z M 2.1875 -12.15625 "/></g></g></g><g fill="#ffffff" fill-opacity="1"><g transform="translate(215.060363, 199.6271)"><g><path d="M 23.703125 -24.640625 C 23.753906 -24.671875 23.828125 -24.6875 23.921875 -24.6875 C 23.972656 -24.6875 24.03125 -24.671875 24.09375 -24.640625 L 24.4375 -24.640625 L 24.4375 -22.625 C 24.457031 -22.457031 24.46875 -22.085938 24.46875 -21.515625 L 24.46875 -20.5625 L 23.75 -20.5625 C 22.03125 -20.539062 21.171875 -20.53125 21.171875 -20.53125 L 13.140625 -20.53125 C 8.984375 -20.53125 6.894531 -20.515625 6.875 -20.484375 C 6.84375 -20.453125 6.828125 -17.644531 6.828125 -12.0625 L 6.828125 -3.609375 C 6.859375 -3.578125 7.070312 -3.5625 7.46875 -3.5625 C 7.925781 -3.5625 8.554688 -3.578125 9.359375 -3.609375 C 10.304688 -3.640625 12.78125 -3.695312 16.78125 -3.78125 C 18.820312 -3.8125 19.910156 -3.835938 20.046875 -3.859375 C 20.109375 -3.890625 20.148438 -4.054688 20.171875 -4.359375 C 20.203125 -4.660156 20.21875 -5.539062 20.21875 -7 L 20.21875 -9.796875 L 12.015625 -9.796875 L 11.984375 -10.265625 C 11.953125 -10.742188 11.921875 -11.210938 11.890625 -11.671875 C 11.835938 -12.242188 11.8125 -12.675781 11.8125 -12.96875 C 11.8125 -13.226562 11.8125 -13.414062 11.8125 -13.53125 L 11.765625 -13.734375 L 12.0625 -13.734375 C 12.289062 -13.734375 12.78125 -13.75 13.53125 -13.78125 C 15.789062 -13.8125 17.40625 -13.867188 18.375 -13.953125 C 18.894531 -13.984375 20.285156 -14 22.546875 -14 L 24.734375 -14.046875 L 24.78125 -10.953125 C 24.78125 -8.921875 24.789062 -7.789062 24.8125 -7.5625 C 24.90625 -6.726562 24.953125 -5.625 24.953125 -4.25 L 24.953125 -2.578125 C 24.953125 -2.085938 24.960938 -1.585938 24.984375 -1.078125 C 25.015625 -0.472656 25.03125 -0.0976562 25.03125 0.046875 L 25.078125 0.296875 L 18.84375 0.34375 C 15.46875 0.375 12.609375 0.390625 10.265625 0.390625 C 6.710938 0.390625 4.289062 0.359375 3 0.296875 L 2.1875 0.25 L 2.234375 -11.890625 L 2.234375 -24.265625 L 2.28125 -24.46875 L 8.546875 -24.46875 C 9.628906 -24.5 10.957031 -24.53125 12.53125 -24.5625 C 19.519531 -24.613281 23.242188 -24.640625 23.703125 -24.640625 Z M 23.703125 -24.640625 "/></g></g></g><g fill="#ffffff" fill-opacity="1"><g transform="translate(250.349301, 199.6271)"><g><path d="M 23.09375 -24.46875 L 26.015625 -24.46875 L 26.015625 -23.4375 C 26.015625 -22.09375 26.0625 -21.296875 26.15625 -21.046875 C 26.15625 -20.929688 26.164062 -19.039062 26.1875 -15.375 C 26.1875 -11.675781 26.203125 -9.769531 26.234375 -9.65625 L 26.28125 -4.640625 L 26.28125 0.21875 L 22.40625 0.171875 L 4.515625 0.171875 C 3.023438 0.171875 2.269531 0.160156 2.25 0.140625 C 2.238281 0.128906 2.234375 -3.96875 2.234375 -12.15625 L 2.1875 -24.4375 L 6.703125 -24.4375 C 8.472656 -24.4375 11.640625 -24.441406 16.203125 -24.453125 C 20.773438 -24.460938 23.070312 -24.46875 23.09375 -24.46875 Z M 17.5625 -20.21875 C 14.613281 -20.25 12.238281 -20.265625 10.4375 -20.265625 L 6.953125 -20.265625 L 6.953125 -3.953125 L 10.6875 -3.953125 C 12.75 -3.953125 15.171875 -3.96875 17.953125 -4 L 21.46875 -4.03125 L 21.46875 -20.1875 L 21.34375 -20.1875 C 21.257812 -20.207031 20 -20.21875 17.5625 -20.21875 Z M 17.5625 -20.21875 "/></g></g></g><g fill="#ffffff" fill-opacity="1"><g transform="translate(286.840249, 199.6271)"><g><path d="M 2.234375 -24.609375 C 2.265625 -24.628906 3.109375 -24.640625 4.765625 -24.640625 L 6.703125 -24.640625 L 6.828125 -24.515625 C 6.828125 -24.484375 6.863281 -24.425781 6.9375 -24.34375 C 7.007812 -24.257812 7.070312 -24.203125 7.125 -24.171875 C 7.269531 -24.003906 7.398438 -23.847656 7.515625 -23.703125 C 7.773438 -23.472656 12.695312 -17.960938 22.28125 -7.171875 C 22.457031 -6.992188 22.554688 -6.90625 22.578125 -6.90625 C 22.640625 -6.96875 22.6875 -11.453125 22.71875 -20.359375 C 22.71875 -23.097656 22.722656 -24.484375 22.734375 -24.515625 C 22.742188 -24.546875 23.539062 -24.5625 25.125 -24.5625 L 27.484375 -24.5625 L 27.484375 0.25 L 26.875 0.296875 C 26.445312 0.328125 25.734375 0.34375 24.734375 0.34375 L 23.1875 0.390625 L 22.625 -0.21875 C 22.113281 -0.757812 19.46875 -3.691406 14.6875 -9.015625 C 9.90625 -14.335938 7.457031 -17.070312 7.34375 -17.21875 C 7.3125 -17.269531 7.28125 -17.296875 7.25 -17.296875 L 7.25 -17.21875 C 7.25 -11.125 7.265625 -6.910156 7.296875 -4.578125 C 7.328125 -2.242188 7.34375 -0.757812 7.34375 -0.125 C 7.34375 0.1875 7.332031 0.347656 7.3125 0.359375 C 7.300781 0.378906 6.378906 0.390625 4.546875 0.390625 L 2.1875 0.390625 L 2.1875 -0.640625 Z M 2.234375 -24.609375 "/></g></g></g></svg>